<svg xmlns="http://www.w3.org/2000/svg" xmlns:xlink="http://www.w3.org/1999/xlink" width="20" height="19" viewBox="0 0 20 19">
    <defs>
        <path id="a" d="M8.125 6.417h3.75c.345 0 .625.26.625.583 0 .322-.28.583-.625.583h-3.75v3.5c0 .322-.28.584-.625.584s-.625-.262-.625-.584v-3.5h-3.75c-.345 0-.625-.26-.625-.583 0-.322.28-.583.625-.583h3.75v-3.5c0-.322.28-.584.625-.584s.625.262.625.584v3.5z"/>
    </defs>
    <g fill="none" fill-rule="evenodd">
        <ellipse cx="10" cy="9.5" fill="#DEDEFF" rx="10" ry="9.5"/>
        <use fill="#BFAFE0" fill-rule="nonzero" transform="rotate(45 5.509 11.497)" xlink:href="#a"/>
    </g>
</svg>
