<svg xmlns="http://www.w3.org/2000/svg" xmlns:xlink="http://www.w3.org/1999/xlink" width="24" height="24" viewBox="0 0 24 24">
    <defs>
        <path id="a" d="M12.123 13.291a15 15 0 0 0 1.813 1.359l.72-.721a3 3 0 0 1 3.164-.676c.836.312 1.705.529 2.6.647A2.997 2.997 0 0 1 23 16.89v2.996a3 3 0 0 1-3.288 2.998 20.78 20.78 0 0 1-9.058-3.22 20.42 20.42 0 0 1-2.782-2.121l-6.165 6.164a1 1 0 1 1-1.414-1.414l9.6-9.6a1.01 1.01 0 0 1 .17-.17L22.292.293a1 1 0 0 1 1.414 1.414L12.123 13.291zm-1.417 1.417l-1.418 1.418c.76.683 1.577 1.303 2.446 1.855a18.774 18.774 0 0 0 8.176 2.913A1 1 0 0 0 21 19.89v-3.01a.998.998 0 0 0-.85-.999 13.845 13.845 0 0 1-3.032-.755.998.998 0 0 0-1.05.221l-1.27 1.27a1 1 0 0 1-1.202.162 17 17 0 0 1-2.89-2.07zm-4.677-2.442a1 1 0 0 1-1.678 1.088A20.807 20.807 0 0 1 1.124 4.27 3 3 0 0 1 4.11 1H7.1a3.002 3.002 0 0 1 3.001 2.59c.117.885.334 1.754.645 2.588a3.002 3.002 0 0 1-.679 3.17l-1.27 1.27a1 1 0 1 1-1.414-1.415l1.266-1.266a1 1 0 0 0 .224-1.057 13.817 13.817 0 0 1-.753-3.02A1.003 1.003 0 0 0 7.11 3h-3a1 1 0 0 0-.996 1.072 18.79 18.79 0 0 0 2.915 8.194z"/>
    </defs>
    <g fill="none" fill-rule="evenodd">
        <mask id="b" fill="#fff">
            <use xlink:href="#a"/>
        </mask>
        <use fill="#FFF" fill-rule="nonzero" xlink:href="#a"/>
        <g fill="#FFF" mask="url(#b)">
            <path d="M0 0h24v24H0z"/>
        </g>
    </g>
</svg>
