<svg xmlns="http://www.w3.org/2000/svg" xmlns:xlink="http://www.w3.org/1999/xlink" viewBox="0 0 80 80"><defs><style>.cls-1{fill:#fff;}.cls-2{fill:#f05440;}</style><symbol id="New_Symbol_1" data-name="New Symbol 1" viewBox="0 0 64 64.02"><path class="cls-1" d="M60.85,64c-1.84,0-4.25-1.3-7.54-3.07a45,45,0,0,0-4.7-2.32A31.74,31.74,0,0,1,9.3,9.3,31.74,31.74,0,0,1,58.51,48.8a47.23,47.23,0,0,0,2.35,4.6c2.65,4.79,4.25,7.68,2.23,9.69A3,3,0,0,1,60.85,64ZM31.74,5A26.7,26.7,0,1,0,46.46,54c2.06-1.36,4.76.09,9.23,2.5l1.58.84-.83-1.51c-2.55-4.6-3.95-7.13-2.57-9.18A26.7,26.7,0,0,0,31.74,5Z"/><path class="cls-1" d="M43.8,24.08H19.72a2.52,2.52,0,1,1,0-5H43.8a2.52,2.52,0,1,1,0,5Z"/><path class="cls-1" d="M35.56,34.16H19.72a2.52,2.52,0,0,1,0-5H35.56a2.52,2.52,0,0,1,0,5Z"/><path class="cls-1" d="M27.64,44.24H19.72a2.52,2.52,0,0,1,0-5h7.92a2.52,2.52,0,0,1,0,5Z"/></symbol><symbol id="New_Symbol_11" data-name="New Symbol 11" viewBox="0 0 110 110"><path class="cls-1" d="M84,85.31c-1.84,0-4.25-1.3-7.54-3.07a45,45,0,0,0-4.7-2.32,31.73,31.73,0,1,1,9.9-9.83A47.23,47.23,0,0,0,84,74.69c2.65,4.79,4.25,7.68,2.23,9.69A3,3,0,0,1,84,85.31Zm-29.11-59a26.7,26.7,0,1,0,14.73,49c2.06-1.36,4.76.09,9.23,2.5l1.58.84-.83-1.51C77.09,72.53,75.69,70,77.07,68A26.7,26.7,0,0,0,54.93,26.33Z"/><path class="cls-1" d="M67,45.36H42.91a2.52,2.52,0,0,1,0-5H67a2.52,2.52,0,0,1,0,5Z"/><path class="cls-1" d="M58.75,55.44H42.91a2.52,2.52,0,0,1,0-5H58.75a2.52,2.52,0,0,1,0,5Z"/><path class="cls-1" d="M50.83,65.52H42.91a2.52,2.52,0,1,1,0-5h7.92a2.52,2.52,0,1,1,0,5Z"/><circle class="cls-2" cx="55" cy="55" r="55"/><use width="64" height="64.02" transform="translate(23.19 21.29)" xlink:href="#New_Symbol_1"/></symbol></defs><title>Send SMS</title><g id="Layer_2" data-name="Layer 2"><g id="Layer_1-2" data-name="Layer 1"><use width="110" height="110" transform="scale(0.73)" xlink:href="#New_Symbol_11"/></g></g></svg>