<svg xmlns="http://www.w3.org/2000/svg" xmlns:xlink="http://www.w3.org/1999/xlink" viewBox="0 0 80 80"><defs><style>.cls-1{fill:#f05440;}.cls-2{fill:#fff;fill-rule:evenodd;}</style><symbol id="New_Symbol_2" data-name="New Symbol 2" viewBox="0 0 63.38 64"><g id="_2ebd8e07-40e6-4fbd-b565-9d66dab87a2c.psd" data-name="2ebd8e07-40e6-4fbd-b565-9d66dab87a2c.psd"><g id="Reminder"><path class="cls-2" d="M31.69,7A28.51,28.51,0,1,0,60.21,35.49,28.4,28.4,0,0,0,31.69,7Zm0,50.69A22.18,22.18,0,1,1,53.87,35.49,22,22,0,0,1,31.69,57.66ZM18.7,5.07,14.58.32,0,12.36l4.12,4.75Zm44.68,7.29L48.8,0,44.68,4.75,59.26,17.11Zm-30.1,7.29H28.52v19l14.89,9.19L45.95,44l-12.68-7.6Z"/></g></g></symbol><symbol id="New_Symbol_10" data-name="New Symbol 10" viewBox="0 0 110 110"><circle class="cls-1" cx="55" cy="55" r="55"/><use width="63.38" height="64" transform="translate(23.31 21.5)" xlink:href="#New_Symbol_2"/></symbol></defs><title>Set_Appointment</title><g id="Layer_2" data-name="Layer 2"><g id="Layer_1-2" data-name="Layer 1"><use width="110" height="110" transform="scale(0.73)" xlink:href="#New_Symbol_10"/></g></g></svg>