<svg xmlns="http://www.w3.org/2000/svg" viewBox="0 0 49.28 47.09"><defs><style>.cls-1{fill:#6d6d6d;}</style></defs><title>Unfavorite</title><g id="Layer_2" data-name="Layer 2"><g id="Layer_1-2" data-name="Layer 1"><g id="VIP"><path class="cls-1" d="M26.79,1.56,31.06,14.7a2.26,2.26,0,0,0,2.15,1.56H47a2.26,2.26,0,0,1,1.33,4.09L37.17,28.46A2.26,2.26,0,0,0,36.35,31l4.27,13.14a2.26,2.26,0,0,1-3.48,2.53L26,38.53a2.26,2.26,0,0,0-2.66,0L12.14,46.65a2.26,2.26,0,0,1-3.48-2.53L12.93,31a2.26,2.26,0,0,0-.82-2.53L.94,20.34a2.26,2.26,0,0,1,1.33-4.09H16.08a2.26,2.26,0,0,0,2.15-1.56L22.49,1.56A2.26,2.26,0,0,1,26.79,1.56Z"/></g></g></g></svg>