<svg xmlns="http://www.w3.org/2000/svg" xmlns:xlink="http://www.w3.org/1999/xlink" viewBox="0 0 50.79 48.6"><defs><style>.cls-1{fill:#fec20f;stroke:#fff;stroke-miterlimit:10;stroke-width:2px;}</style><symbol id="VIP" data-name="VIP" viewBox="0 0 67.44 64.53"><path class="cls-1" d="M36.57,3.07l5.67,17.44a3,3,0,0,0,2.85,2.07H63.43A3,3,0,0,1,65.2,28L50.36,38.79a3,3,0,0,0-1.09,3.35l5.67,17.44a3,3,0,0,1-4.62,3.35L35.48,52.17a3,3,0,0,0-3.53,0L17.12,62.95a3,3,0,0,1-4.62-3.35l5.67-17.44a3,3,0,0,0-1.09-3.35L2.24,28A3,3,0,0,1,4,22.59H22.35a3,3,0,0,0,2.85-2.07L30.87,3.07A3,3,0,0,1,36.57,3.07Z"/></symbol></defs><title>Favorite</title><g id="Layer_2" data-name="Layer 2"><g id="Layer_1-2" data-name="Layer 1"><use id="VIP-3" data-name="VIP" width="67.44" height="64.53" transform="scale(0.75)" xlink:href="#VIP"/></g></g></svg>